<?xml version="1.0" encoding="UTF-8"?>
<!DOCTYPE svg PUBLIC "-//W3C//DTD SVG 1.1//EN" "http://www.w3.org/Graphics/SVG/1.1/DTD/svg11.dtd">
<svg xmlns="http://www.w3.org/2000/svg" version="1.1" width="1280px" height="1280px" style="shape-rendering:geometricPrecision; text-rendering:geometricPrecision; image-rendering:optimizeQuality; fill-rule:evenodd; clip-rule:evenodd" xmlns:xlink="http://www.w3.org/1999/xlink">
    <g><path style="opacity:1" fill="#fefefe" d="M -0.5,-0.5 C 426.167,-0.5 852.833,-0.5 1279.5,-0.5C 1279.5,426.167 1279.5,852.833 1279.5,1279.5C 852.833,1279.5 426.167,1279.5 -0.5,1279.5C -0.5,852.833 -0.5,426.167 -0.5,-0.5 Z"/></g>
    <g><path style="opacity:1" fill="#030303" d="M 447.5,568.5 C 461.003,569.166 470.17,575.832 475,588.5C 478.843,613.392 479.509,638.392 477,663.5C 473.743,691.122 459.243,699.955 433.5,690C 426.341,681.534 422.508,671.701 422,660.5C 420.409,635.639 421.742,610.972 426,586.5C 429.778,576.205 436.945,570.205 447.5,568.5 Z"/></g>
    <g><path style="opacity:1" fill="#020202" d="M 591.5,568.5 C 597.031,568.177 600.864,570.51 603,575.5C 603.218,599.88 604.218,624.213 606,648.5C 611.69,632.422 617.69,616.422 624,600.5C 630.929,592.163 637.262,592.496 643,601.5C 647.35,617.55 652.683,633.217 659,648.5C 662.365,623.877 665.365,599.211 668,574.5C 670.897,569.845 675.063,568.345 680.5,570C 683.738,572.145 685.405,575.145 685.5,579C 681.773,616.317 677.273,653.483 672,690.5C 666.328,696.102 660.995,695.768 656,689.5C 647.705,669.917 639.705,650.25 632,630.5C 624.077,649.935 616.744,669.601 610,689.5C 605.265,695.115 599.931,695.781 594,691.5C 591.904,685.686 590.57,679.686 590,673.5C 585.938,640.611 584.605,607.611 586,574.5C 587.36,571.977 589.193,569.977 591.5,568.5 Z"/></g>
    <g><path style="opacity:1" fill="#030303" d="M 721.5,568.5 C 735.003,569.166 744.17,575.832 749,588.5C 752.843,613.392 753.509,638.392 751,663.5C 747.743,691.122 733.243,699.955 707.5,690C 700.341,681.534 696.508,671.701 696,660.5C 694.409,635.639 695.742,610.972 700,586.5C 703.778,576.205 710.945,570.205 721.5,568.5 Z"/></g>
    <g><path style="opacity:1" fill="#020202" d="M 400.5,568.5 C 408.538,568.061 412.372,571.727 412,579.5C 401.436,614.423 392.436,649.757 385,685.5C 381.699,694.488 376.032,696.488 368,691.5C 358.915,653.075 351.248,614.409 345,575.5C 349.263,568.843 354.597,567.843 361,572.5C 362.275,574.717 363.275,577.051 364,579.5C 367.343,599.051 371.51,618.384 376.5,637.5C 382.436,617.334 387.936,597 393,576.5C 394.353,572.65 396.853,569.983 400.5,568.5 Z"/></g>
    <g><path style="opacity:1" fill="#040404" d="M 828.5,569.5 C 834.414,568.953 838.581,571.286 841,576.5C 841.167,589.18 841.667,601.846 842.5,614.5C 846.344,610.153 849.177,605.153 851,599.5C 852.19,591.895 852.857,584.229 853,576.5C 855.811,569.594 860.645,567.761 867.5,571C 868.787,572.41 869.954,573.91 871,575.5C 872.696,592.859 868.863,608.859 859.5,623.5C 862.142,627.309 864.975,630.976 868,634.5C 869.954,638.981 871.287,643.648 872,648.5C 873.443,661.805 873.777,675.138 873,688.5C 869.975,692.921 865.808,694.421 860.5,693C 859.069,692.535 857.903,691.701 857,690.5C 855.898,675.84 854.564,661.174 853,646.5C 851.73,641.396 848.563,638.062 843.5,636.5C 842.667,653.824 842.167,671.157 842,688.5C 838.634,693.609 834.134,694.776 828.5,692C 826.951,690.786 825.785,689.286 825,687.5C 823.328,650.858 822.662,614.191 823,577.5C 823.49,573.854 825.323,571.187 828.5,569.5 Z"/></g>
    <g><path style="opacity:1" fill="#090909" d="M 495.5,570.5 C 504.051,569.563 508.218,573.23 508,581.5C 507.015,585.666 504.348,587.666 500,587.5C 492.154,587.143 489.154,583.143 491,575.5C 492.366,573.638 493.866,571.972 495.5,570.5 Z"/></g>
    <g><path style="opacity:1" fill="#030303" d="M 562.5,570.5 C 569.624,568.972 574.124,571.639 576,578.5C 575.178,613.819 574.511,649.153 574,684.5C 573.959,688.448 572.126,690.948 568.5,692C 559.833,692.667 551.167,692.667 542.5,692C 532.232,690.4 525.732,684.567 523,674.5C 522.178,672.212 521.511,669.878 521,667.5C 520.333,656.5 520.333,645.5 521,634.5C 522.242,624.181 525.909,614.848 532,606.5C 538.911,599.545 547.244,596.545 557,597.5C 557.333,590.167 557.667,582.833 558,575.5C 559.025,573.313 560.525,571.646 562.5,570.5 Z"/></g>
    <g><path style="opacity:1" fill="#030303" d="M 769.5,570.5 C 771.527,570.338 773.527,570.505 775.5,571C 777.833,572.667 780.167,574.333 782.5,576C 803.829,575.499 813.829,585.999 812.5,607.5C 812.483,613.213 811.983,618.88 811,624.5C 808.103,629.155 803.937,630.655 798.5,629C 796.185,627.891 794.685,626.057 794,623.5C 793.667,614.833 793.333,606.167 793,597.5C 790.409,593.952 786.909,592.618 782.5,593.5C 782.244,625.836 781.744,658.169 781,690.5C 780.654,692.848 779.487,694.681 777.5,696C 769.426,698.387 764.593,695.554 763,687.5C 762.879,650.5 763.212,613.5 764,576.5C 765.36,573.977 767.193,571.977 769.5,570.5 Z"/></g>
    <g><path style="opacity:1" fill="#040404" d="M 899.5,569.5 C 907.973,568.598 915.973,570.098 923.5,574C 928.043,578.585 930.876,584.085 932,590.5C 932.89,597.914 932.557,605.247 931,612.5C 925.133,618.034 919.8,617.701 915,611.5C 913.788,604.913 913.121,598.246 913,591.5C 910.441,588.651 907.274,587.817 903.5,589C 901.996,590.491 901.163,592.324 901,594.5C 900.091,600.612 900.424,606.612 902,612.5C 909.962,618.794 917.629,625.46 925,632.5C 927.527,636.221 929.527,640.221 931,644.5C 932.504,656.461 932.838,668.461 932,680.5C 928.793,687.709 923.293,691.875 915.5,693C 908.433,693.839 901.433,693.506 894.5,692C 889.449,689.28 886.282,685.113 885,679.5C 884.333,668.167 884.333,656.833 885,645.5C 891.086,638.655 896.753,638.988 902,646.5C 902.055,655.601 902.722,664.601 904,673.5C 908.2,676.66 911.533,675.994 914,671.5C 915.192,662.204 914.192,653.204 911,644.5C 903.987,637.822 896.654,631.489 889,625.5C 885.327,621.153 882.994,616.153 882,610.5C 881.673,602.102 882.339,593.769 884,585.5C 887.355,578.313 892.522,572.979 899.5,569.5 Z"/></g>
    <g><path style="opacity:1" fill="#f9f9f9" d="M 448.5,587.5 C 453.886,587.377 457.053,590.044 458,595.5C 459.565,615.803 459.899,636.136 459,656.5C 458.579,660.872 457.912,665.205 457,669.5C 455.422,674.869 451.922,677.035 446.5,676C 444.383,674.269 442.883,672.102 442,669.5C 441.147,645.48 441.481,621.48 443,597.5C 443.56,593.373 445.393,590.04 448.5,587.5 Z"/></g>
    <g><path style="opacity:1" fill="#f9f9f9" d="M 722.5,587.5 C 727.886,587.377 731.053,590.044 732,595.5C 733.565,615.803 733.899,636.136 733,656.5C 732.579,660.872 731.912,665.205 731,669.5C 729.422,674.869 725.922,677.035 720.5,676C 718.383,674.269 716.883,672.102 716,669.5C 715.147,645.48 715.481,621.48 717,597.5C 717.56,593.373 719.393,590.04 722.5,587.5 Z"/></g>
    <g><path style="opacity:1" fill="#040404" d="M 496.5,593.5 C 502.012,593.169 505.846,595.502 508,600.5C 508.667,628.833 508.667,657.167 508,685.5C 507.892,691.109 505.059,693.776 499.5,693.5C 494.504,693.673 491.337,691.34 490,686.5C 489.333,657.5 489.333,628.5 490,599.5C 491.436,596.558 493.603,594.558 496.5,593.5 Z"/></g>
    <g><path style="opacity:1" fill="#fbfbfb" d="M 548.5,615.5 C 550.833,615.5 553.167,615.5 555.5,615.5C 555.5,635.5 555.5,655.5 555.5,675.5C 546.406,677.241 540.906,673.574 539,664.5C 538.333,655.5 538.333,646.5 539,637.5C 540.146,629.208 543.313,621.875 548.5,615.5 Z"/></g>
</svg>
